{"title":"Metal Tornado 2011 [DVDRIP]- trother","uid":6762780,"size":1446491615,"categoryP":"video","categoryS":"movies","magnet":"?xt=urn:btih:7cd05f0acd280d29e56bcc86fe7734dcccd4f832&amp;dn=Metal+Tornado+2011+%5BDVDRIP%5D-+trother&amp;tr=udp%3A%2F%2Ftracker.openbittorrent.com%3A80&amp;tr=udp%3A%2F%2Fopen.demonii.com%3A1337&amp;tr=udp%3A%2F%2Ftracker.coppersurfer.tk%3A6969&amp;tr=udp%3A%2F%2Fexodus.desync.com%3A6969","seeders":0,"leechers":0,"uploader":"trother","files":-1,"time":1319264666,"description":"            @@                       @@     @@\n           @@@                      @@@    @@@\n          @@@@@@  @@@@@    @@@@@   @@@@@@ @@@        @@@@@    @@@@@\n          @@@@@  @@@@@@@  @@@ @@@  @@@@@  @@@       @@@ @@@  @@@@@@@\n           @@@   @@@  !@ @@@   @@@  @@@   @@@@@@   @@@   @@@ @@@  !@\n           @@@   @@@     @@@   @@@  @@@   @@@@@@@  @@@   @@@ @@@\n           @!@   @!@     @!@   @!@  @!@   @!@  @!@ @!@@ @!@  @!@\n           !!@   !!@     !!@   !!@  !!@   !!@  !!@ !!@@      !!@\n            :!:   :!:     :!: :!:    :!:  :!:  :!:  :!:! :!   :!:\n             ::    ::      ::::       ::   ::  :::   ::::      ::\n                                               :::\n                     ~Metal Tornado 2011 [DVDRIP]-trother~   \n                                           :::\n                                          :::\n\n\n\n*******************************************************************************\nIMDb:               &lt;a href=&quot; http://www.imdb.com/title/tt1688653/&quot; rel=&quot;nofollow&quot; target=&quot;_NEW&quot;&gt; http://www.imdb.com/title/tt1688653/&lt;/a&gt;    \n*******************************************************************************\n\n\n\n          RELEASE.: Metal Tornado [2011]\n          SOURCE..: DVD9 PAL\n          DATE....: 21/10/2011\n          GENRE...: Action\n\n\n\nGeneral\nComplete name                    : G:\\MainMovie\\METAL_TORNADO\\METAL_TORNADO-1.m4v\nFormat                           : MPEG-4\nFormat profile                   : Base Media / Version 2\nCodec ID                         : mp42\nFile size                        : 1.35 GiB\nDuration                         : 1h 26mn\nOverall bit rate                 : 2 235 Kbps\nEncoded date                     : UTC 2011-10-21 16:28:40\nTagged date                      : UTC 2011-10-22 02:11:19\nWriting application              : HandBrake 0.9.5 2011010300\n\nVideo\nID                               : 1\nFormat                           : AVC\nFormat/Info                      : Advanced Video Codec\nFormat profile                   : &lt;a class=&quot;__cf_email__&quot; href=&quot;/cdn-cgi/l/email-protection&quot; data-cfemail=&quot;551d3c323d1519667b65&quot;&gt;[email&amp;#160;protected]&lt;/a&gt;&lt;script cf-hash='f9e31' type=&quot;text/javascript&quot;&gt;\n/* &lt;![CDATA[ */!function(){try{var t=&quot;currentScript&quot;in document?document.currentScript:function(){for(var t=document.getElementsByTagName(&quot;script&quot;),e=t.length;e--;)if(t[e].getAttribute(&quot;cf-hash&quot;))return t[e]}();if(t&amp;&amp;t.previousSibling){var e,r,n,i,c=t.previousSibling,a=c.getAttribute(&quot;data-cfemail&quot;);if(a){for(e=&quot;&quot;,r=parseInt(a.substr(0,2),16),n=2;a.length-n;n+=2)i=parseInt(a.substr(n,2),16)^r,e+=String.fromCharCode(i);e=document.createTextNode(e),c.parentNode.replaceChild(e,c)}}}catch(u){}}();/* ]]&gt; */&lt;/script&gt;\nFormat settings, CABAC           : Yes\nFormat settings, ReFrames        : 4 frames\nFormat settings, GOP             : M=4, N=49\nCodec ID                         : avc1\nCodec ID/Info                    : Advanced Video Coding\nDuration                         : 1h 26mn\nBit rate mode                    : Variable\nBit rate                         : 2 070 Kbps\nWidth                            : 720 pixels\nHeight                           : 400 pixels\nDisplay aspect ratio             : 16:9\nFrame rate mode                  : Constant\nFrame rate                       : 25.000 fps\nColor space                      : YUV\nChroma subsampling               : 4:2:0\nBit depth                        : 8 bits\nScan type                        : Progressive\nBits/(Pixel*Frame)               : 0.288\nStream size                      : 1.25 GiB (93%)\nWriting library                  : x264 core 112\n\n\nAudio\nID                               : 2\nFormat                           : AAC\nFormat/Info                      : Advanced Audio Codec\nFormat profile                   : LC\nCodec ID                         : 40\nDuration                         : 1h 26mn\nBit rate mode                    : Variable\nBit rate                         : 160 Kbps\nMaximum bit rate                 : 294 Kbps\nChannel(s)                       : 2 channels\nChannel positions                : Front: L R\nSampling rate                    : 48.0 KHz\nCompression mode                 : Lossy\nStream size                      : 98.7 MiB (7%)\nLanguage                         : English\n\n\n\n\nPlot: When the earth's upper atmosphere is supercharged by a huge solar flare, disaster strikes a solar ion collection research facility, creating massive magnetic vortexes that shoot down to Earth in the form of giant magnetic tornados. \n\n\nActors: Greg Evigan, Sophie Gendron, John MacLaren, Alexis Maitland, Nicole de Boer","torrent":{"xt":"urn:btih:7cd05f0acd280d29e56bcc86fe7734dcccd4f832","amp;dn":"Metal+Tornado+2011+%5BDVDRIP%5D-+trother","amp;tr":["udp%3A%2F%2Ftracker.openbittorrent.com%3A80","udp%3A%2F%2Fopen.demonii.com%3A1337","udp%3A%2F%2Ftracker.coppersurfer.tk%3A6969","udp%3A%2F%2Fexodus.desync.com%3A6969"],"infoHash":"7cd05f0acd280d29e56bcc86fe7734dcccd4f832","infoHashBuffer":{"type":"Buffer","data":[124,208,95,10,205,40,13,41,229,107,204,134,254,119,52,220,204,212,248,50]},"announce":[],"urlList":[]}}